<svg width="497" height="435" viewBox="0 0 497 435" fill="none" xmlns="http://www.w3.org/2000/svg">
<path d="M97.9099 265.792C98.9299 265.792 99.6599 266.152 100.1 266.862C100.54 267.572 100.76 268.412 100.76 269.362C100.76 269.972 100.81 270.922 100.91 272.212C101.01 273.502 101.03 274.772 100.96 276.032C100.89 277.292 100.64 278.412 100.2 279.392C99.7599 280.372 98.9899 280.872 97.9099 280.872H61.3399C58.7599 280.872 56.7599 281.242 55.3299 281.992C53.8999 282.742 52.8499 283.792 52.1699 285.152C51.4899 286.512 51.0799 288.092 50.9499 289.892C50.8099 291.692 50.7499 293.682 50.7499 295.852V319.592C50.7499 321.702 50.8199 323.682 50.9499 325.552C51.0899 327.422 51.4899 329.012 52.1699 330.342C52.8499 331.662 53.8999 332.722 55.3299 333.502C56.7599 334.282 58.7599 334.672 61.3399 334.672H97.9099C98.9299 334.672 99.6599 335.032 100.1 335.742C100.54 336.452 100.76 337.292 100.76 338.242C100.76 338.922 100.81 339.902 100.91 341.192C101.01 342.482 101.03 343.772 100.96 345.062C100.89 346.352 100.64 347.452 100.2 348.372C99.7599 349.292 98.9899 349.752 97.9099 349.752H60.8299C55.5999 349.752 51.3399 348.972 48.0499 347.412C44.7499 345.852 42.1899 343.682 40.3599 340.892C38.5299 338.112 37.2899 334.742 36.6399 330.802C35.9899 326.862 35.6699 322.522 35.6699 317.762V297.692C35.6699 293.072 35.9799 288.812 36.5899 284.912C37.1999 281.012 38.4199 277.642 40.2599 274.832C42.0899 272.012 44.6599 269.802 47.9499 268.212C51.2399 266.612 55.5399 265.822 60.8399 265.822H97.9099V265.792Z" fill="#2EC2F2"/>
<path d="M125.21 265.792C126.23 265.792 126.96 266.152 127.4 266.862C127.84 267.572 128.06 268.412 128.06 269.362V319.482C128.06 321.652 128.21 323.662 128.52 325.492C128.82 327.322 129.38 328.922 130.2 330.282C131.02 331.642 132.1 332.692 133.46 333.442C134.82 334.192 136.52 334.562 138.55 334.562H171.66C172.68 334.562 173.41 334.922 173.85 335.632C174.29 336.342 174.51 337.182 174.51 338.122V346.172C174.51 347.122 174.29 347.952 173.85 348.672C173.41 349.382 172.68 349.742 171.66 349.742H138.04C132.74 349.742 128.45 348.942 125.15 347.352C121.86 345.752 119.31 343.532 117.51 340.682C115.71 337.832 114.49 334.452 113.84 330.542C113.19 326.642 112.87 322.382 112.87 317.762V269.372C112.87 268.422 113.09 267.592 113.53 266.872C113.97 266.162 114.73 265.802 115.82 265.802H125.21V265.792Z" fill="#0D0D0D"/>
<path d="M236.25 265.792C241.55 265.792 245.84 266.592 249.14 268.182C252.43 269.782 255 271.982 256.83 274.802C258.66 277.622 259.88 280.982 260.5 284.892C261.11 288.802 261.42 293.062 261.42 297.682V317.852C261.42 322.472 261.11 326.732 260.5 330.632C259.89 334.542 258.68 337.912 256.88 340.772C255.08 343.622 252.53 345.852 249.24 347.442C245.95 349.042 241.62 349.832 236.25 349.832H211.39C206.09 349.832 201.8 349.012 198.5 347.382C195.21 345.752 192.66 343.512 190.86 340.662C189.06 337.812 187.86 334.432 187.25 330.522C186.64 326.622 186.33 322.392 186.33 317.842V297.672C186.33 293.122 186.63 288.892 187.25 284.992C187.86 281.092 189.08 277.712 190.92 274.852C192.75 272.002 195.3 269.772 198.56 268.182C201.82 266.582 206.1 265.792 211.4 265.792H236.25ZM246.23 295.942C246.23 293.842 246.16 291.872 246.03 290.032C245.89 288.202 245.5 286.602 244.86 285.242C244.21 283.882 243.18 282.812 241.75 282.032C240.32 281.252 238.32 280.862 235.74 280.862H211.9C209.39 280.862 207.42 281.252 205.99 282.032C204.56 282.812 203.51 283.882 202.83 285.242C202.15 286.602 201.74 288.202 201.61 290.032C201.47 291.862 201.41 293.842 201.41 295.942V319.682C201.41 321.782 201.48 323.762 201.61 325.592C201.74 327.422 202.15 329.002 202.83 330.332C203.51 331.652 204.56 332.712 205.99 333.492C207.41 334.272 209.38 334.662 211.9 334.662H235.74C238.32 334.662 240.32 334.272 241.75 333.492C243.18 332.712 244.21 331.662 244.86 330.332C245.5 329.002 245.89 327.432 246.03 325.592C246.16 323.762 246.23 321.792 246.23 319.682V295.942Z" fill="#0D0D0D"/>
<path d="M343.21 265.792C344.23 265.792 344.96 266.152 345.4 266.862C345.84 267.572 346.06 268.412 346.06 269.362V277.312C346.06 278.262 345.84 279.092 345.4 279.812C344.96 280.522 344.23 280.882 343.21 280.882H299.92C297.41 280.882 295.44 281.272 294.01 282.052C292.58 282.832 291.51 283.902 290.8 285.262C290.09 286.622 289.66 288.222 289.53 290.052C289.39 291.882 289.33 293.852 289.33 295.962V319.492C289.33 321.602 289.4 323.582 289.53 325.452C289.67 327.322 290.07 328.912 290.75 330.242C291.43 331.572 292.48 332.622 293.91 333.402C295.34 334.182 297.34 334.572 299.92 334.572H328.44C329.25 334.572 329.9 334.372 330.37 333.962C330.84 333.552 331.19 333.032 331.39 332.382C331.59 331.742 331.71 331.062 331.75 330.342C331.78 329.632 331.8 328.962 331.8 328.352V314.192H306.33C305.24 314.192 304.5 313.822 304.09 313.072C303.68 312.322 303.48 311.482 303.48 310.522C303.48 309.912 303.43 308.982 303.33 307.722C303.23 306.462 303.21 305.192 303.28 303.902C303.35 302.612 303.6 301.492 304.04 300.542C304.48 299.592 305.24 299.112 306.33 299.112H342.39C343.68 299.112 344.6 299.572 345.14 300.492C345.68 301.412 345.95 302.442 345.95 303.602V330.802C345.95 332.842 345.83 334.962 345.59 337.172C345.35 339.382 344.82 341.422 344.01 343.282C343.2 345.152 342.02 346.692 340.5 347.922C338.97 349.142 336.89 349.752 334.24 349.752H299.4C294.17 349.752 289.91 348.972 286.61 347.412C283.32 345.852 280.75 343.682 278.92 340.892C277.09 338.112 275.85 334.742 275.2 330.802C274.55 326.862 274.23 322.522 274.23 317.762V297.692C274.23 293.072 274.55 288.832 275.2 284.962C275.84 281.092 277.07 277.732 278.87 274.872C280.67 272.022 283.22 269.792 286.51 268.202C289.8 266.602 294.1 265.812 299.4 265.812H343.21V265.792Z" fill="#0D0D0D"/>
<path d="M372.14 265.792C372.55 265.792 373.12 265.992 373.87 266.402C374.62 266.812 374.99 267.792 374.99 269.352V346.262C374.99 347.822 374.62 348.812 373.87 349.212C373.12 349.622 372.55 349.822 372.14 349.822H362.77C362.36 349.822 361.78 349.622 361.04 349.212C360.29 348.802 359.92 347.822 359.92 346.262V269.352C359.92 267.792 360.29 266.802 361.04 266.402C361.79 265.992 362.36 265.792 362.77 265.792H372.14Z" fill="#0D0D0D"/>
<path d="M451.09 265.792C452.11 265.792 452.84 266.152 453.28 266.862C453.72 267.572 453.94 268.412 453.94 269.362C453.94 269.972 453.99 270.922 454.09 272.212C454.19 273.502 454.21 274.772 454.14 276.032C454.07 277.292 453.82 278.412 453.38 279.392C452.94 280.372 452.17 280.872 451.09 280.872H414.52C411.94 280.872 409.94 281.242 408.51 281.992C407.08 282.742 406.03 283.792 405.35 285.152C404.67 286.512 404.26 288.092 404.13 289.892C403.99 291.692 403.93 293.682 403.93 295.852V319.592C403.93 321.702 404 323.682 404.13 325.552C404.27 327.422 404.67 329.012 405.35 330.342C406.03 331.662 407.08 332.722 408.51 333.502C409.94 334.282 411.94 334.672 414.52 334.672H451.09C452.11 334.672 452.84 335.032 453.28 335.742C453.72 336.452 453.94 337.292 453.94 338.242C453.94 338.922 453.99 339.902 454.09 341.192C454.19 342.482 454.21 343.772 454.14 345.062C454.07 346.352 453.82 347.452 453.38 348.372C452.94 349.292 452.17 349.752 451.09 349.752H414.01C408.78 349.752 404.52 348.972 401.23 347.412C397.93 345.852 395.37 343.682 393.54 340.892C391.71 338.112 390.47 334.742 389.82 330.802C389.17 326.862 388.85 322.522 388.85 317.762V297.692C388.85 293.072 389.16 288.812 389.77 284.912C390.38 281.012 391.6 277.642 393.44 274.832C395.27 272.012 397.84 269.802 401.13 268.212C404.42 266.612 408.72 265.822 414.02 265.822H451.09V265.792Z" fill="#0D0D0D"/>
<path d="M37.35 402.862C35.03 401.502 33.23 399.622 31.94 397.232C30.65 394.842 30 392.172 30 389.212C30 386.282 30.65 383.622 31.94 381.232C33.24 378.842 35.05 376.962 37.38 375.582C39.71 374.202 42.34 373.512 45.27 373.512C48.17 373.512 50.79 374.182 53.12 375.522C55.45 376.862 57.24 378.802 58.51 381.362L54.97 383.342C53.96 381.392 52.66 379.922 51.05 378.942C49.44 377.962 47.6 377.472 45.53 377.472C43.35 377.472 41.41 377.972 39.73 378.982C38.05 379.992 36.75 381.382 35.83 383.162C34.91 384.942 34.45 386.952 34.45 389.202C34.45 391.442 34.91 393.462 35.83 395.242C36.75 397.022 38.05 398.422 39.73 399.422C41.41 400.432 43.35 400.932 45.53 400.932C47.6 400.932 49.45 400.442 51.07 399.462C52.69 398.482 54.01 397.022 55.02 395.062L58.51 397.042C57.25 399.602 55.45 401.552 53.12 402.882C50.79 404.222 48.17 404.892 45.27 404.892C42.3 404.912 39.66 404.232 37.35 402.862Z" fill="#0D0D0D"/>
<path d="M69.75 402.822C67.39 401.432 65.56 399.542 64.25 397.152C62.94 394.762 62.29 392.122 62.29 389.212C62.29 386.312 62.94 383.662 64.25 381.282C65.56 378.892 67.39 377.002 69.75 375.612C72.11 374.222 74.78 373.522 77.77 373.522C80.76 373.522 83.43 374.222 85.79 375.612C88.15 377.012 89.99 378.892 91.31 381.282C92.63 383.672 93.29 386.312 93.29 389.212C93.29 392.112 92.63 394.762 91.31 397.152C89.99 399.542 88.15 401.432 85.79 402.822C83.43 404.222 80.76 404.912 77.77 404.912C74.78 404.912 72.11 404.212 69.75 402.822ZM83.53 399.432C85.21 398.422 86.52 397.032 87.45 395.252C88.38 393.472 88.85 391.462 88.85 389.212C88.85 386.972 88.38 384.962 87.45 383.172C86.52 381.392 85.21 379.992 83.53 378.992C81.85 377.982 79.93 377.482 77.77 377.482C75.61 377.482 73.7 377.982 72.03 378.992C70.36 380.002 69.06 381.392 68.13 383.172C67.2 384.952 66.73 386.972 66.73 389.212C66.73 391.452 67.2 393.472 68.13 395.252C69.06 397.032 70.37 398.432 72.03 399.432C73.7 400.442 75.61 400.942 77.77 400.942C79.93 400.942 81.85 400.442 83.53 399.432Z" fill="#0D0D0D"/>
<path d="M119.54 375.932C121.8 377.142 123.55 378.882 124.8 381.152C126.05 383.422 126.68 386.112 126.68 389.212C126.68 392.322 126.06 395.002 124.8 397.272C123.55 399.542 121.8 401.282 119.54 402.492C117.28 403.702 114.7 404.302 111.8 404.302H100.24V374.112H111.8C114.7 374.122 117.28 374.722 119.54 375.932ZM119.47 397.472C121.31 395.532 122.23 392.782 122.23 389.212C122.23 385.642 121.31 382.892 119.47 380.952C117.63 379.012 115.07 378.042 111.8 378.042H104.47V400.382H111.8C115.08 400.382 117.63 399.412 119.47 397.472Z" fill="#0D0D0D"/>
<path d="M154.88 400.432V404.312H133.62V374.122H154.45V378.002H137.85V387.142H153.54V390.982H137.85V400.432H154.88Z" fill="#0D0D0D"/>
<path d="M203.91 374.122V404.312H199.77V380.552L189.72 396.542H186.27L176.23 380.552V404.312H172.13V374.122H176.74L188.04 392.102L199.3 374.122H203.91Z" fill="#0D0D0D"/>
<path d="M233.8 400.432V404.312H212.53V374.122H233.36V378.002H216.76V387.142H232.46V390.982H216.76V400.432H233.8Z" fill="#0D0D0D"/>
<path d="M262.47 400.432V404.312H241.21V374.122H262.04V378.002H245.44V387.142H261.14V390.982H245.44V400.432H262.47Z" fill="#0D0D0D"/>
<path d="M276.36 378.042H266.44V374.122H290.5V378.042H280.58V404.312H276.36V378.042Z" fill="#0D0D0D"/>
<path d="M297.83 403.062C295.7 401.822 294.18 400.112 293.26 397.932L296.58 395.902C297.38 397.572 298.58 398.852 300.16 399.742C301.74 400.632 303.58 401.082 305.68 401.082C307.84 401.082 309.53 400.632 310.77 399.722C312.01 398.812 312.63 397.602 312.63 396.082C312.63 394.932 312.22 393.982 311.4 393.232C310.58 392.482 309.27 391.882 307.45 391.422L302.58 390.262C296.97 388.912 294.17 386.192 294.17 382.112C294.17 380.442 294.61 378.962 295.49 377.672C296.37 376.382 297.63 375.362 299.29 374.632C300.94 373.902 302.89 373.532 305.13 373.532C307.83 373.532 310.16 374.032 312.12 375.042C314.08 376.052 315.46 377.382 316.26 379.052L313.03 381.162C312.28 379.922 311.22 378.982 309.84 378.332C308.46 377.682 306.88 377.362 305.1 377.362C303.03 377.362 301.41 377.782 300.25 378.612C299.09 379.452 298.5 380.592 298.5 382.062C298.5 383.182 298.9 384.092 299.71 384.802C300.51 385.512 301.87 386.072 303.76 386.502L308.63 387.712C311.5 388.402 313.62 389.422 314.97 390.772C316.32 392.122 317 393.832 317 395.902C317 397.682 316.55 399.262 315.66 400.622C314.77 401.992 313.47 403.042 311.76 403.792C310.05 404.542 308 404.912 305.61 404.912C302.55 404.912 299.96 404.292 297.83 403.062Z" fill="#0D0D0D"/>
<path d="M353.12 400.382V404.312H333.11V374.122H337.33V400.382H353.12Z" fill="#0D0D0D"/>
<path d="M362.82 402.822C360.46 401.432 358.63 399.542 357.32 397.152C356.01 394.762 355.36 392.122 355.36 389.212C355.36 386.312 356.01 383.662 357.32 381.282C358.63 378.892 360.46 377.002 362.82 375.612C365.18 374.222 367.85 373.522 370.84 373.522C373.83 373.522 376.5 374.222 378.86 375.612C381.22 377.012 383.06 378.892 384.38 381.282C385.7 383.672 386.36 386.312 386.36 389.212C386.36 392.112 385.7 394.762 384.38 397.152C383.06 399.542 381.22 401.432 378.86 402.822C376.5 404.222 373.83 404.912 370.84 404.912C367.85 404.912 365.18 404.212 362.82 402.822ZM376.6 399.432C378.28 398.422 379.59 397.032 380.52 395.252C381.45 393.472 381.92 391.462 381.92 389.212C381.92 386.972 381.45 384.962 380.52 383.172C379.59 381.392 378.28 379.992 376.6 378.992C374.92 377.982 373 377.482 370.84 377.482C368.68 377.482 366.77 377.982 365.1 378.992C363.43 380.002 362.13 381.392 361.2 383.172C360.27 384.952 359.8 386.972 359.8 389.212C359.8 391.452 360.27 393.472 361.2 395.252C362.13 397.032 363.43 398.432 365.1 399.432C366.77 400.442 368.68 400.942 370.84 400.942C373 400.942 374.92 400.442 376.6 399.432Z" fill="#0D0D0D"/>
<path d="M419.7 388.012V400.042C418.52 401.572 416.87 402.762 414.76 403.622C412.65 404.482 410.28 404.912 407.67 404.912C404.42 404.912 401.59 404.252 399.17 402.932C396.76 401.612 394.89 399.762 393.59 397.392C392.28 395.022 391.63 392.322 391.63 389.302C391.63 386.222 392.29 383.492 393.61 381.112C394.93 378.722 396.76 376.862 399.11 375.532C401.45 374.192 404.12 373.522 407.11 373.522C409.75 373.522 412.1 374.042 414.16 375.072C416.22 376.102 417.85 377.562 419.06 379.432L415.83 381.762C414.91 380.382 413.71 379.322 412.23 378.592C410.75 377.862 409.06 377.492 407.16 377.492C404.95 377.492 403.01 377.982 401.34 378.962C399.67 379.942 398.38 381.322 397.46 383.122C396.54 384.922 396.08 386.992 396.08 389.352C396.08 391.762 396.55 393.842 397.5 395.582C398.45 397.322 399.79 398.662 401.53 399.592C403.27 400.522 405.32 400.992 407.68 400.992C409.4 400.992 410.96 400.762 412.36 400.302C413.75 399.842 414.85 399.222 415.66 398.452V391.812H407.9V388.012H419.7Z" fill="#0D0D0D"/>
<path d="M431.22 374.122H426.99V404.312H431.22V374.122Z" fill="#0D0D0D"/>
<path d="M445.6 402.862C443.28 401.502 441.48 399.622 440.19 397.232C438.9 394.842 438.25 392.172 438.25 389.212C438.25 386.282 438.9 383.622 440.19 381.232C441.48 378.842 443.29 376.962 445.62 375.582C447.95 374.202 450.58 373.512 453.51 373.512C456.41 373.512 459.03 374.182 461.36 375.522C463.69 376.862 465.48 378.802 466.75 381.362L463.21 383.342C462.2 381.392 460.9 379.922 459.29 378.942C457.68 377.962 455.84 377.472 453.77 377.472C451.59 377.472 449.65 377.972 447.97 378.982C446.29 379.992 444.99 381.382 444.07 383.162C443.15 384.942 442.69 386.952 442.69 389.202C442.69 391.442 443.15 393.462 444.07 395.242C444.99 397.022 446.29 398.422 447.97 399.422C449.65 400.432 451.58 400.932 453.77 400.932C455.84 400.932 457.69 400.442 459.31 399.462C460.93 398.482 462.25 397.022 463.26 395.062L466.75 397.042C465.48 399.602 463.69 401.552 461.36 402.882C459.03 404.222 456.41 404.892 453.51 404.892C450.55 404.912 447.91 404.232 445.6 402.862Z" fill="#0D0D0D"/>
<path d="M335.95 72.9218C323.37 82.6818 310.99 92.3018 298.6 101.922C293.95 97.3318 289.45 92.8718 284.94 88.4218C282.88 86.3818 280.57 84.5218 278.81 82.2418C276.09 78.7218 272.78 77.5918 268.43 77.9518C264.14 78.3018 259.79 78.0318 255.47 78.0318C255.23 77.6518 254.99 77.2618 254.75 76.8818C256.99 74.9318 259.18 72.9318 261.49 71.0918C262.04 70.6518 263.01 70.5918 263.79 70.5918C270.78 70.5818 277.77 70.5618 284.75 70.7318C285.76 70.7618 287.05 71.5418 287.7 72.3718C290.23 75.5818 293.81 76.1818 296.66 73.6518C299 71.5718 299.11 67.5318 296.88 65.3518C294.36 62.8818 290.4 63.4118 287.78 66.3718C287.12 67.1118 285.88 67.7118 284.9 67.7318C277.55 67.8718 270.2 67.7718 262.85 67.9318C261.66 67.9518 260.25 68.5918 259.35 69.4018C256.87 71.6518 254.65 74.1918 252.22 76.4918C251.5 77.1818 250.41 77.8718 249.48 77.8818C241.77 77.9818 234.05 77.9218 226.34 77.8918C226 77.8918 225.66 77.7518 225.03 77.6118C225.03 72.1518 224.99 66.7318 225.08 61.3218C225.09 60.6418 225.74 59.8518 226.28 59.3118C230.31 55.2618 234.33 51.1818 238.51 47.2818C239.44 46.4118 240.99 45.7818 242.27 45.7618C250.16 45.6318 258.06 45.7318 265.96 45.7018C267.43 45.6918 268.42 45.9818 269.27 47.4118C270.72 49.8318 273.23 50.5618 275.89 49.7818C278.47 49.0218 279.87 47.2418 279.95 44.6118C280.03 41.9118 278.83 39.8918 276.21 38.8818C273.72 37.9218 271.07 38.5318 269.51 40.9718C268.44 42.6418 267.21 42.9018 265.48 42.8918C257.4 42.8418 249.32 42.8418 241.25 42.9718C240.12 42.9918 238.73 43.4718 237.92 44.2318C233.11 48.7818 228.39 53.4318 223.77 58.1818C222.94 59.0318 222.36 60.5018 222.33 61.7018C222.19 66.6918 222.13 71.6918 222.38 76.6718C222.52 79.4018 221.62 81.3018 219.61 83.0118C218.6 83.8718 217.95 85.1518 217.14 86.2418C216.85 86.0618 216.55 85.8818 216.25 85.6918C216.17 85.0518 216.01 84.4118 216.01 83.7718C216.01 75.7818 216.04 67.8018 216.03 59.8118C216.03 58.1818 216.29 57.0018 217.95 56.0318C220.27 54.6818 221.01 51.6918 220.06 49.3118C219.04 46.7718 217.17 45.4418 214.37 45.5318C211.59 45.6218 209.82 46.9818 209.07 49.7518C208.34 52.4218 209.08 54.7318 211.48 56.0818C212.97 56.9218 213.16 57.9518 213.16 59.3818C213.15 68.7318 213.26 78.0818 213.11 87.4318C213.09 88.7418 212.23 90.4718 211.19 91.2618C206.85 94.5518 205.9 98.7218 205.98 104.022C206.29 124.622 206.1 145.232 206.21 165.832C206.22 167.212 206.78 168.922 207.7 169.892C212.46 174.882 217.45 179.642 222.29 184.552C223.71 185.992 225.18 186.662 227.3 186.642C241.91 186.532 256.53 186.512 271.14 186.612C273.62 186.632 275.4 185.902 277.07 184.122C283.92 176.872 290.86 169.712 297.84 162.452C311.12 172.362 323.67 181.722 336.51 191.302C333.91 193.982 331.51 196.532 329.04 199.012C317.9 210.202 306.73 221.362 295.62 232.592C294.19 234.042 292.74 234.752 290.64 234.712C283.93 234.582 277.21 234.752 270.49 234.592C269.11 234.562 267.44 233.942 266.45 233.012C262.68 229.482 259.02 225.812 255.55 221.982C254.05 220.322 252.51 219.792 250.36 219.812C238.83 219.892 227.31 219.812 215.78 219.882C213.9 219.892 212.58 219.312 211.26 217.982C202.46 209.072 193.55 200.272 184.78 191.342C183.87 190.422 183.1 188.902 183.08 187.642C182.91 171.852 182.87 156.062 182.9 140.262C182.9 139.222 183.57 138.092 184.18 137.182C184.83 136.222 185.66 135.282 186.62 134.642C191.62 131.312 192.82 126.712 192.46 120.882C191.98 113.012 192.35 105.092 192.51 97.2018C192.53 96.1818 193.28 94.9218 194.09 94.2218C196.27 92.3418 197.23 89.8018 196.32 87.2018C195.48 84.7618 193.69 83.5618 191.18 83.4918C188.38 83.4218 186.58 84.9018 185.62 87.4518C184.73 89.8118 185.7 92.3418 187.8 94.2318C188.61 94.9618 189.39 96.2318 189.41 97.2718C189.55 106.892 189.57 116.512 189.49 126.132C189.48 127.172 188.89 128.382 188.19 129.202C186.66 130.992 185.05 132.782 183.2 134.202C180.6 136.192 180.06 138.672 180.09 141.782C180.23 155.572 180.16 169.372 180.17 183.172C180.17 184.062 180.17 184.962 180.17 185.942C176.43 184.452 174.26 181.352 174.27 177.772C174.3 159.622 174.34 141.472 174.33 123.312C174.33 121.582 174.57 120.352 176.32 119.352C178.57 118.062 179.17 115.312 178.28 112.862C177.38 110.392 175.23 108.972 172.58 109.102C169.89 109.242 168.2 110.702 167.42 113.202C166.66 115.642 167.67 118.202 169.62 119.722C170.35 120.292 171.2 121.292 171.22 122.112C171.37 130.092 171.35 138.082 171.37 146.072C171.37 146.322 171.22 146.572 171.02 147.232C167.96 144.282 165.07 141.502 162.17 138.702C161.84 138.382 161.6 137.962 161.24 137.712C155.35 133.662 153.94 128.132 154.28 121.122C154.87 109.082 154.38 96.9818 154.46 84.9118C154.47 83.7018 154.98 82.1918 155.8 81.3518C172.11 64.6918 188.48 48.0918 204.91 31.5518C205.75 30.7018 207.25 30.0718 208.45 30.0718C236.13 29.9818 263.81 29.9818 291.5 30.0418C292.56 30.0418 293.92 30.4618 294.64 31.1918C308.19 44.7118 321.67 58.3118 335.16 71.9018C335.41 72.1618 335.6 72.4618 335.95 72.9218ZM213.67 197.322C213.86 197.072 214.05 196.832 214.24 196.582C221.31 196.582 228.38 196.602 235.46 196.562C236.94 196.552 237.89 196.912 238.72 198.342C240.11 200.732 242.9 201.592 245.34 200.802C247.7 200.032 249.4 197.702 249.39 195.222C249.39 192.652 247.61 190.292 245.11 189.522C242.78 188.812 240.35 189.852 238.64 191.912C237.96 192.732 236.75 193.582 235.76 193.602C227.87 193.772 219.97 193.792 212.08 193.732C211.12 193.722 209.94 193.252 209.25 192.592C205.7 189.212 202.23 185.762 198.87 182.202C198.1 181.382 197.52 180.032 197.5 178.912C197.4 173.202 197.54 167.482 197.52 161.762C197.51 160.112 197.88 158.952 199.4 157.932C201.75 156.372 202.47 153.592 201.46 151.212C200.41 148.722 198.5 147.332 195.76 147.352C193.18 147.362 191.13 149.052 190.39 151.592C189.65 154.152 190.48 156.802 192.92 158.172C194.41 159.002 194.61 160.022 194.61 161.452C194.62 167.442 194.57 173.432 194.8 179.412C194.85 180.862 195.52 182.622 196.52 183.642C205.1 192.382 213.78 201.022 222.54 209.582C223.44 210.472 225.02 211.092 226.29 211.102C239.08 211.222 251.88 211.202 264.67 211.172C266.4 211.172 267.64 211.372 268.64 213.162C269.96 215.522 272.28 216.342 274.98 215.572C277.62 214.822 279.2 212.842 279.2 210.232C279.21 207.612 278.1 205.662 275.56 204.742C272.98 203.812 270.47 204.692 268.66 206.622C267.86 207.472 266.53 208.312 265.43 208.322C252.64 208.472 239.84 208.462 227.05 208.472C226.27 208.472 225.25 208.432 224.76 207.972C221.01 204.472 217.35 200.882 213.67 197.322Z" fill="#2EC2F2"/>
<path d="M263.31 234.622C260.69 234.622 258.07 234.622 255.45 234.622C239.93 234.632 224.41 234.682 208.89 234.592C207.62 234.582 206.01 233.992 205.12 233.102C188.8 216.822 172.59 200.442 156.3 184.132C154.99 182.812 154.39 181.512 154.4 179.622C154.48 165.732 154.44 151.852 154.45 137.962C154.45 137.182 154.45 136.402 154.45 134.942C156.27 136.662 157.65 137.922 158.97 139.222C161.3 141.512 163.36 144.152 165.96 146.062C170.44 149.352 171.86 153.452 171.53 158.912C171.11 165.872 171.38 172.882 171.55 179.872C171.58 181.142 172.24 182.702 173.13 183.612C185.64 196.252 198.22 208.812 210.88 221.312C211.7 222.122 213.27 222.532 214.49 222.542C226.29 222.632 238.09 222.542 249.88 222.672C251.23 222.682 252.84 223.392 253.86 224.312C257.28 227.382 260.48 230.692 263.76 233.902C263.61 234.132 263.46 234.382 263.31 234.622Z" fill="#2EC2F2"/>
</svg>
